<mxfile host="app.diagrams.net" modified="2024-07-10T18:52:30.077Z" agent="Mozilla/5.0 (Windows NT 10.0; Win64; x64) AppleWebKit/537.36 (KHTML, like Gecko) Chrome/126.0.0.0 Safari/537.36" etag="buL5cA6HQzgSOLczNZQC" version="24.6.4" type="github">
  <diagram name="Page-1" id="iGI9gvBIAFvF1aFVwaXv">
    <mxGraphModel dx="934" dy="525" grid="1" gridSize="10" guides="1" tooltips="1" connect="1" arrows="1" fold="1" page="1" pageScale="1" pageWidth="827" pageHeight="1169" math="0" shadow="0">
      <root>
        <mxCell id="0" />
        <mxCell id="1" parent="0" />
        <mxCell id="q8BLech53V7XYQDHPa9J-1" value="&lt;p style=&quot;line-height: 0%;&quot;&gt;Processus de &quot;management&quot;&lt;/p&gt;" style="rounded=1;whiteSpace=wrap;html=1;fillColor=#60a917;fontColor=#ffffff;strokeColor=#2D7600;verticalAlign=top;horizontal=1;" parent="1" vertex="1">
          <mxGeometry x="40" width="760" height="120" as="geometry" />
        </mxCell>
        <mxCell id="q8BLech53V7XYQDHPa9J-2" value="Processus &quot;support&quot;" style="rounded=1;whiteSpace=wrap;html=1;fillColor=#fa6800;fontColor=#000000;strokeColor=#C73500;verticalAlign=top;" parent="1" vertex="1">
          <mxGeometry x="40" y="360" width="760" height="120" as="geometry" />
        </mxCell>
        <mxCell id="q8BLech53V7XYQDHPa9J-3" value="Processus &quot;opérationnel&quot;" style="rounded=1;whiteSpace=wrap;html=1;fillColor=#0050ef;fontColor=#ffffff;strokeColor=#001DBC;verticalAlign=top;" parent="1" vertex="1">
          <mxGeometry x="40" y="130" width="760" height="220" as="geometry" />
        </mxCell>
        <mxCell id="q8BLech53V7XYQDHPa9J-4" value="Gestion des ressources humaines&amp;nbsp;" style="rounded=1;whiteSpace=wrap;html=1;fillColor=#d5e8d4;strokeColor=#82b366;" parent="1" vertex="1">
          <mxGeometry x="90" y="50" width="150" height="60" as="geometry" />
        </mxCell>
        <mxCell id="q8BLech53V7XYQDHPa9J-5" value="Planification stratégique" style="rounded=1;whiteSpace=wrap;html=1;fillColor=#d5e8d4;strokeColor=#82b366;" parent="1" vertex="1">
          <mxGeometry x="338" y="50" width="150" height="60" as="geometry" />
        </mxCell>
        <mxCell id="q8BLech53V7XYQDHPa9J-6" value="Gestion des risques et conformité" style="rounded=1;whiteSpace=wrap;html=1;fillColor=#d5e8d4;strokeColor=#82b366;" parent="1" vertex="1">
          <mxGeometry x="590" y="50" width="150" height="60" as="geometry" />
        </mxCell>
        <mxCell id="q8BLech53V7XYQDHPa9J-8" value="Création de contenu" style="rounded=1;whiteSpace=wrap;html=1;fillColor=#dae8fc;strokeColor=#6c8ebf;" parent="1" vertex="1">
          <mxGeometry x="95" y="170" width="150" height="60" as="geometry" />
        </mxCell>
        <mxCell id="q8BLech53V7XYQDHPa9J-9" value="Gestion des influenceur" style="rounded=1;whiteSpace=wrap;html=1;fillColor=#dae8fc;strokeColor=#6c8ebf;" parent="1" vertex="1">
          <mxGeometry x="343" y="170" width="150" height="60" as="geometry" />
        </mxCell>
        <mxCell id="q8BLech53V7XYQDHPa9J-10" value="Gestion des campagnes" style="rounded=1;whiteSpace=wrap;html=1;fillColor=#dae8fc;strokeColor=#6c8ebf;" parent="1" vertex="1">
          <mxGeometry x="595" y="170" width="150" height="60" as="geometry" />
        </mxCell>
        <mxCell id="q8BLech53V7XYQDHPa9J-11" value="Recherche et sélection d&#39;influenceurs" style="rounded=1;whiteSpace=wrap;html=1;fillColor=#dae8fc;strokeColor=#6c8ebf;" parent="1" vertex="1">
          <mxGeometry x="95" y="260" width="150" height="60" as="geometry" />
        </mxCell>
        <mxCell id="q8BLech53V7XYQDHPa9J-12" value="Analyse des données" style="rounded=1;whiteSpace=wrap;html=1;fillColor=#dae8fc;strokeColor=#6c8ebf;" parent="1" vertex="1">
          <mxGeometry x="343" y="260" width="150" height="60" as="geometry" />
        </mxCell>
        <mxCell id="q8BLech53V7XYQDHPa9J-13" value="Gestion des clients" style="rounded=1;whiteSpace=wrap;html=1;fillColor=#dae8fc;strokeColor=#6c8ebf;" parent="1" vertex="1">
          <mxGeometry x="595" y="260" width="150" height="60" as="geometry" />
        </mxCell>
        <mxCell id="q8BLech53V7XYQDHPa9J-14" value="Support technique" style="rounded=1;whiteSpace=wrap;html=1;fillColor=#ffe6cc;strokeColor=#d79b00;" parent="1" vertex="1">
          <mxGeometry x="93" y="400" width="150" height="60" as="geometry" />
        </mxCell>
        <mxCell id="q8BLech53V7XYQDHPa9J-15" value="Gestion comptable" style="rounded=1;whiteSpace=wrap;html=1;fillColor=#ffe6cc;strokeColor=#d79b00;" parent="1" vertex="1">
          <mxGeometry x="341" y="400" width="150" height="60" as="geometry" />
        </mxCell>
        <mxCell id="q8BLech53V7XYQDHPa9J-16" value="Formations" style="rounded=1;whiteSpace=wrap;html=1;fillColor=#ffe6cc;strokeColor=#d79b00;" parent="1" vertex="1">
          <mxGeometry x="593" y="400" width="150" height="60" as="geometry" />
        </mxCell>
        <mxCell id="q8BLech53V7XYQDHPa9J-17" value="&lt;p style=&quot;line-height: 0%;&quot;&gt;Processus de &quot;management&quot;&lt;/p&gt;" style="rounded=1;whiteSpace=wrap;html=1;fillColor=#60a917;fontColor=#ffffff;strokeColor=#2D7600;verticalAlign=top;horizontal=1;" parent="1" vertex="1">
          <mxGeometry x="40" y="560" width="760" height="330" as="geometry" />
        </mxCell>
        <mxCell id="q8BLech53V7XYQDHPa9J-18" value="Gestion des ressources humaines&amp;nbsp;" style="rounded=1;whiteSpace=wrap;html=1;fillColor=#d5e8d4;strokeColor=#82b366;verticalAlign=top;" parent="1" vertex="1">
          <mxGeometry x="90" y="610" width="150" height="160" as="geometry" />
        </mxCell>
        <mxCell id="q8BLech53V7XYQDHPa9J-19" value="Planification stratégique" style="rounded=1;whiteSpace=wrap;html=1;fillColor=#d5e8d4;strokeColor=#82b366;verticalAlign=top;" parent="1" vertex="1">
          <mxGeometry x="338" y="610" width="150" height="210" as="geometry" />
        </mxCell>
        <mxCell id="q8BLech53V7XYQDHPa9J-20" value="Gestion des risques et conformité" style="rounded=1;whiteSpace=wrap;html=1;fillColor=#d5e8d4;strokeColor=#82b366;verticalAlign=top;" parent="1" vertex="1">
          <mxGeometry x="590" y="610" width="150" height="260" as="geometry" />
        </mxCell>
        <mxCell id="q8BLech53V7XYQDHPa9J-21" value="Recrutement" style="shape=parallelogram;perimeter=parallelogramPerimeter;whiteSpace=wrap;html=1;fixedSize=1;size=23.5;fillColor=#cdeb8b;strokeColor=#36393d;" parent="1" vertex="1">
          <mxGeometry x="96.5" y="660" width="137" height="40" as="geometry" />
        </mxCell>
        <mxCell id="q8BLech53V7XYQDHPa9J-22" value="Suivie des&amp;nbsp;&lt;div&gt;équipes&lt;/div&gt;" style="shape=parallelogram;perimeter=parallelogramPerimeter;whiteSpace=wrap;html=1;fixedSize=1;size=23.5;fillColor=#cdeb8b;strokeColor=#36393d;" parent="1" vertex="1">
          <mxGeometry x="96.5" y="710" width="137" height="40" as="geometry" />
        </mxCell>
        <mxCell id="q8BLech53V7XYQDHPa9J-25" value="&amp;nbsp; &amp;nbsp;Fixation des o&lt;span style=&quot;background-color: initial;&quot;&gt;bjectifs&lt;/span&gt;&lt;div&gt;&lt;span style=&quot;background-color: initial;&quot;&gt;stratégiques&lt;/span&gt;&lt;/div&gt;" style="shape=parallelogram;perimeter=parallelogramPerimeter;whiteSpace=wrap;html=1;fixedSize=1;size=23.5;fillColor=#cdeb8b;strokeColor=#36393d;" parent="1" vertex="1">
          <mxGeometry x="344.5" y="660" width="137" height="40" as="geometry" />
        </mxCell>
        <mxCell id="q8BLech53V7XYQDHPa9J-26" value="Allocation des ressources" style="shape=parallelogram;perimeter=parallelogramPerimeter;whiteSpace=wrap;html=1;fixedSize=1;size=23.5;fillColor=#cdeb8b;strokeColor=#36393d;" parent="1" vertex="1">
          <mxGeometry x="344.5" y="710" width="137" height="40" as="geometry" />
        </mxCell>
        <mxCell id="q8BLech53V7XYQDHPa9J-27" value="&lt;div&gt;&amp;nbsp; &amp;nbsp;Suivi et ajustement&lt;/div&gt;&lt;div&gt;de la stratégie&lt;/div&gt;" style="shape=parallelogram;perimeter=parallelogramPerimeter;whiteSpace=wrap;html=1;fixedSize=1;size=23.5;fillColor=#cdeb8b;strokeColor=#36393d;" parent="1" vertex="1">
          <mxGeometry x="344.5" y="760" width="137" height="40" as="geometry" />
        </mxCell>
        <mxCell id="q8BLech53V7XYQDHPa9J-28" value="Identification &amp;amp;&amp;nbsp;&lt;div&gt;évaluation&lt;span style=&quot;background-color: initial;&quot;&gt;&amp;nbsp;des risques&lt;/span&gt;&lt;/div&gt;" style="shape=parallelogram;perimeter=parallelogramPerimeter;whiteSpace=wrap;html=1;fixedSize=1;size=23.5;fillColor=#cdeb8b;strokeColor=#36393d;fontSize=10;" parent="1" vertex="1">
          <mxGeometry x="597.25" y="660" width="137" height="40" as="geometry" />
        </mxCell>
        <mxCell id="q8BLech53V7XYQDHPa9J-29" value="Planification de la&amp;nbsp;&lt;div&gt;réponse aux risques&lt;/div&gt;" style="shape=parallelogram;perimeter=parallelogramPerimeter;whiteSpace=wrap;html=1;fixedSize=1;size=23.5;fillColor=#cdeb8b;strokeColor=#36393d;fontSize=11;" parent="1" vertex="1">
          <mxGeometry x="597.25" y="710" width="137" height="40" as="geometry" />
        </mxCell>
        <mxCell id="q8BLech53V7XYQDHPa9J-30" value="Surveillance et&amp;nbsp;&lt;div&gt;contrôle des risques&lt;/div&gt;" style="shape=parallelogram;perimeter=parallelogramPerimeter;whiteSpace=wrap;html=1;fixedSize=1;size=23.5;fillColor=#cdeb8b;strokeColor=#36393d;" parent="1" vertex="1">
          <mxGeometry x="597.25" y="760" width="137" height="40" as="geometry" />
        </mxCell>
        <mxCell id="q8BLech53V7XYQDHPa9J-31" value="Conformité légale&lt;div&gt;et réglementaire&lt;br&gt;&lt;/div&gt;" style="shape=parallelogram;perimeter=parallelogramPerimeter;whiteSpace=wrap;html=1;fixedSize=1;size=23.5;fillColor=#cdeb8b;strokeColor=#36393d;" parent="1" vertex="1">
          <mxGeometry x="595.75" y="810" width="137" height="40" as="geometry" />
        </mxCell>
        <mxCell id="q8BLech53V7XYQDHPa9J-32" value="Processus &quot;opérationnel&quot;" style="rounded=1;whiteSpace=wrap;html=1;fillColor=#0050ef;fontColor=#ffffff;strokeColor=#001DBC;verticalAlign=top;" parent="1" vertex="1">
          <mxGeometry x="36" y="900" width="760" height="520" as="geometry" />
        </mxCell>
        <mxCell id="q8BLech53V7XYQDHPa9J-33" value="Création de contenu" style="rounded=1;whiteSpace=wrap;html=1;fillColor=#dae8fc;strokeColor=#6c8ebf;verticalAlign=top;" parent="1" vertex="1">
          <mxGeometry x="91" y="940" width="150" height="200" as="geometry" />
        </mxCell>
        <mxCell id="q8BLech53V7XYQDHPa9J-34" value="Gestion des influenceur" style="rounded=1;whiteSpace=wrap;html=1;fillColor=#dae8fc;strokeColor=#6c8ebf;verticalAlign=top;" parent="1" vertex="1">
          <mxGeometry x="339" y="940" width="150" height="200" as="geometry" />
        </mxCell>
        <mxCell id="q8BLech53V7XYQDHPa9J-35" value="Gestion des campagnes" style="rounded=1;whiteSpace=wrap;html=1;fillColor=#dae8fc;strokeColor=#6c8ebf;verticalAlign=top;" parent="1" vertex="1">
          <mxGeometry x="591" y="940" width="150" height="200" as="geometry" />
        </mxCell>
        <mxCell id="q8BLech53V7XYQDHPa9J-36" value="Recherche et sélection d&#39;influenceurs" style="rounded=1;whiteSpace=wrap;html=1;fillColor=#dae8fc;strokeColor=#6c8ebf;verticalAlign=top;" parent="1" vertex="1">
          <mxGeometry x="93" y="1180" width="150" height="200" as="geometry" />
        </mxCell>
        <mxCell id="q8BLech53V7XYQDHPa9J-37" value="Analyse des données" style="rounded=1;whiteSpace=wrap;html=1;fillColor=#dae8fc;strokeColor=#6c8ebf;verticalAlign=top;" parent="1" vertex="1">
          <mxGeometry x="341" y="1180" width="150" height="200" as="geometry" />
        </mxCell>
        <mxCell id="q8BLech53V7XYQDHPa9J-38" value="Gestion des clients" style="rounded=1;whiteSpace=wrap;html=1;fillColor=#dae8fc;strokeColor=#6c8ebf;verticalAlign=top;" parent="1" vertex="1">
          <mxGeometry x="593" y="1180" width="150" height="200" as="geometry" />
        </mxCell>
        <mxCell id="q8BLech53V7XYQDHPa9J-39" value="Briefing de&amp;nbsp;&lt;div&gt;contenu&lt;/div&gt;" style="shape=parallelogram;perimeter=parallelogramPerimeter;whiteSpace=wrap;html=1;fixedSize=1;size=23.5;fillColor=#1ba1e2;strokeColor=#006EAF;fontColor=#ffffff;" parent="1" vertex="1">
          <mxGeometry x="99.5" y="980" width="137" height="40" as="geometry" />
        </mxCell>
        <mxCell id="q8BLech53V7XYQDHPa9J-40" value="Production de&amp;nbsp;&lt;div&gt;contenu&lt;br&gt;&lt;/div&gt;" style="shape=parallelogram;perimeter=parallelogramPerimeter;whiteSpace=wrap;html=1;fixedSize=1;size=23.5;fillColor=#1ba1e2;strokeColor=#006EAF;fontColor=#ffffff;" parent="1" vertex="1">
          <mxGeometry x="99.5" y="1030" width="137" height="40" as="geometry" />
        </mxCell>
        <mxCell id="q8BLech53V7XYQDHPa9J-41" value="Validation et&amp;nbsp;&lt;div&gt;approbation&lt;br&gt;&lt;/div&gt;" style="shape=parallelogram;perimeter=parallelogramPerimeter;whiteSpace=wrap;html=1;fixedSize=1;size=23.5;fillColor=#1ba1e2;strokeColor=#006EAF;fontColor=#ffffff;" parent="1" vertex="1">
          <mxGeometry x="97.5" y="1080" width="137" height="40" as="geometry" />
        </mxCell>
        <mxCell id="q8BLech53V7XYQDHPa9J-42" style="edgeStyle=orthogonalEdgeStyle;rounded=0;orthogonalLoop=1;jettySize=auto;html=1;exitX=0.5;exitY=1;exitDx=0;exitDy=0;" parent="1" source="q8BLech53V7XYQDHPa9J-33" target="q8BLech53V7XYQDHPa9J-33" edge="1">
          <mxGeometry relative="1" as="geometry" />
        </mxCell>
        <mxCell id="q8BLech53V7XYQDHPa9J-43" value="Recrutements" style="shape=parallelogram;perimeter=parallelogramPerimeter;whiteSpace=wrap;html=1;fixedSize=1;size=23.5;fillColor=#1ba1e2;strokeColor=#006EAF;fontColor=#ffffff;" parent="1" vertex="1">
          <mxGeometry x="346" y="980" width="137" height="40" as="geometry" />
        </mxCell>
        <mxCell id="q8BLech53V7XYQDHPa9J-44" value="&lt;div&gt;Trouver des&amp;nbsp;&lt;/div&gt;&lt;div&gt;partenariats&lt;/div&gt;" style="shape=parallelogram;perimeter=parallelogramPerimeter;whiteSpace=wrap;html=1;fixedSize=1;size=23.5;fillColor=#1ba1e2;strokeColor=#006EAF;fontColor=#ffffff;" parent="1" vertex="1">
          <mxGeometry x="346" y="1030" width="137" height="40" as="geometry" />
        </mxCell>
        <mxCell id="q8BLech53V7XYQDHPa9J-45" value="&lt;div style=&quot;font-size: 10px;&quot;&gt;Suivi de la&amp;nbsp;&lt;span style=&quot;background-color: initial; font-size: 10px;&quot;&gt;perfor-&lt;/span&gt;&lt;/div&gt;&lt;div style=&quot;font-size: 10px;&quot;&gt;&lt;span style=&quot;background-color: initial; font-size: 10px;&quot;&gt;mance des Influenceurs&lt;/span&gt;&lt;/div&gt;" style="shape=parallelogram;perimeter=parallelogramPerimeter;whiteSpace=wrap;html=1;fixedSize=1;size=23.5;fillColor=#1ba1e2;strokeColor=#006EAF;fontColor=#ffffff;fontSize=10;" parent="1" vertex="1">
          <mxGeometry x="344" y="1080" width="137" height="40" as="geometry" />
        </mxCell>
        <mxCell id="q8BLech53V7XYQDHPa9J-46" value="Planification des campagnes&amp;nbsp;" style="shape=parallelogram;perimeter=parallelogramPerimeter;whiteSpace=wrap;html=1;fixedSize=1;size=23.5;fillColor=#1ba1e2;strokeColor=#006EAF;fontColor=#ffffff;" parent="1" vertex="1">
          <mxGeometry x="598.5" y="980" width="137" height="40" as="geometry" />
        </mxCell>
        <mxCell id="q8BLech53V7XYQDHPa9J-47" value="&lt;div&gt;Modification des campagnes&lt;/div&gt;" style="shape=parallelogram;perimeter=parallelogramPerimeter;whiteSpace=wrap;html=1;fixedSize=1;size=23.5;fillColor=#1ba1e2;strokeColor=#006EAF;fontColor=#ffffff;" parent="1" vertex="1">
          <mxGeometry x="598.5" y="1030" width="137" height="40" as="geometry" />
        </mxCell>
        <mxCell id="q8BLech53V7XYQDHPa9J-48" value="&lt;div&gt;Rapport et analyse&lt;br&gt;&lt;/div&gt;" style="shape=parallelogram;perimeter=parallelogramPerimeter;whiteSpace=wrap;html=1;fixedSize=1;size=23.5;fillColor=#1ba1e2;strokeColor=#006EAF;fontColor=#ffffff;" parent="1" vertex="1">
          <mxGeometry x="596.5" y="1080" width="137" height="40" as="geometry" />
        </mxCell>
        <mxCell id="q8BLech53V7XYQDHPa9J-49" value="Identification des influenceurs" style="shape=parallelogram;perimeter=parallelogramPerimeter;whiteSpace=wrap;html=1;fixedSize=1;size=23.5;fillColor=#1ba1e2;strokeColor=#006EAF;fontColor=#ffffff;" parent="1" vertex="1">
          <mxGeometry x="102.5" y="1220" width="137" height="40" as="geometry" />
        </mxCell>
        <mxCell id="q8BLech53V7XYQDHPa9J-50" value="&lt;div&gt;Qualification des influenceurs&lt;br&gt;&lt;/div&gt;" style="shape=parallelogram;perimeter=parallelogramPerimeter;whiteSpace=wrap;html=1;fixedSize=1;size=23.5;fillColor=#1ba1e2;strokeColor=#006EAF;fontColor=#ffffff;" parent="1" vertex="1">
          <mxGeometry x="102.5" y="1270" width="137" height="40" as="geometry" />
        </mxCell>
        <mxCell id="q8BLech53V7XYQDHPa9J-51" value="&lt;div&gt;Intégration en DB&lt;/div&gt;" style="shape=parallelogram;perimeter=parallelogramPerimeter;whiteSpace=wrap;html=1;fixedSize=1;size=23.5;fillColor=#1ba1e2;strokeColor=#006EAF;fontColor=#ffffff;" parent="1" vertex="1">
          <mxGeometry x="100.5" y="1320" width="137" height="40" as="geometry" />
        </mxCell>
        <mxCell id="q8BLech53V7XYQDHPa9J-52" value="Collecte de&amp;nbsp;&lt;div&gt;données&lt;br&gt;&lt;/div&gt;" style="shape=parallelogram;perimeter=parallelogramPerimeter;whiteSpace=wrap;html=1;fixedSize=1;size=23.5;fillColor=#1ba1e2;strokeColor=#006EAF;fontColor=#ffffff;" parent="1" vertex="1">
          <mxGeometry x="346" y="1220" width="137" height="40" as="geometry" />
        </mxCell>
        <mxCell id="q8BLech53V7XYQDHPa9J-53" value="&lt;div&gt;Analyse de&amp;nbsp;&lt;/div&gt;&lt;div&gt;performance&lt;br&gt;&lt;/div&gt;" style="shape=parallelogram;perimeter=parallelogramPerimeter;whiteSpace=wrap;html=1;fixedSize=1;size=23.5;fillColor=#1ba1e2;strokeColor=#006EAF;fontColor=#ffffff;" parent="1" vertex="1">
          <mxGeometry x="346" y="1270" width="137" height="40" as="geometry" />
        </mxCell>
        <mxCell id="q8BLech53V7XYQDHPa9J-54" value="&lt;div&gt;Génération de&amp;nbsp;&lt;/div&gt;&lt;div&gt;rapports&lt;br&gt;&lt;/div&gt;" style="shape=parallelogram;perimeter=parallelogramPerimeter;whiteSpace=wrap;html=1;fixedSize=1;size=23.5;fillColor=#1ba1e2;strokeColor=#006EAF;fontColor=#ffffff;" parent="1" vertex="1">
          <mxGeometry x="344" y="1320" width="137" height="40" as="geometry" />
        </mxCell>
        <mxCell id="q8BLech53V7XYQDHPa9J-55" value="Onboarding des&amp;nbsp;&lt;div&gt;clients&lt;br&gt;&lt;/div&gt;" style="shape=parallelogram;perimeter=parallelogramPerimeter;whiteSpace=wrap;html=1;fixedSize=1;size=23.5;fillColor=#1ba1e2;strokeColor=#006EAF;fontColor=#ffffff;" parent="1" vertex="1">
          <mxGeometry x="600.5" y="1220" width="137" height="40" as="geometry" />
        </mxCell>
        <mxCell id="q8BLech53V7XYQDHPa9J-56" value="&lt;div&gt;Suivi et Fidélisation&lt;br&gt;&lt;/div&gt;" style="shape=parallelogram;perimeter=parallelogramPerimeter;whiteSpace=wrap;html=1;fixedSize=1;size=23.5;fillColor=#1ba1e2;strokeColor=#006EAF;fontColor=#ffffff;" parent="1" vertex="1">
          <mxGeometry x="600.5" y="1270" width="137" height="40" as="geometry" />
        </mxCell>
        <mxCell id="q8BLech53V7XYQDHPa9J-57" value="&lt;div&gt;Prospection&lt;/div&gt;" style="shape=parallelogram;perimeter=parallelogramPerimeter;whiteSpace=wrap;html=1;fixedSize=1;size=23.5;fillColor=#1ba1e2;strokeColor=#006EAF;fontColor=#ffffff;" parent="1" vertex="1">
          <mxGeometry x="598.5" y="1320" width="137" height="40" as="geometry" />
        </mxCell>
        <mxCell id="q8BLech53V7XYQDHPa9J-58" value="Processus &quot;support&quot;" style="rounded=1;whiteSpace=wrap;html=1;fillColor=#fa6800;fontColor=#000000;strokeColor=#C73500;verticalAlign=top;" parent="1" vertex="1">
          <mxGeometry x="40" y="1440" width="760" height="280" as="geometry" />
        </mxCell>
        <mxCell id="q8BLech53V7XYQDHPa9J-59" value="Support technique" style="rounded=1;whiteSpace=wrap;html=1;fillColor=#ffe6cc;strokeColor=#d79b00;verticalAlign=top;" parent="1" vertex="1">
          <mxGeometry x="93" y="1480" width="150" height="200" as="geometry" />
        </mxCell>
        <mxCell id="q8BLech53V7XYQDHPa9J-60" value="Gestion comptable" style="rounded=1;whiteSpace=wrap;html=1;fillColor=#ffe6cc;strokeColor=#d79b00;verticalAlign=top;" parent="1" vertex="1">
          <mxGeometry x="341" y="1480" width="150" height="160" as="geometry" />
        </mxCell>
        <mxCell id="q8BLech53V7XYQDHPa9J-61" value="Formations" style="rounded=1;whiteSpace=wrap;html=1;fillColor=#ffe6cc;strokeColor=#d79b00;verticalAlign=top;" parent="1" vertex="1">
          <mxGeometry x="593" y="1480" width="150" height="160" as="geometry" />
        </mxCell>
        <mxCell id="q8BLech53V7XYQDHPa9J-62" value="Assistance aux utilisateurs" style="shape=parallelogram;perimeter=parallelogramPerimeter;whiteSpace=wrap;html=1;fixedSize=1;size=23.5;fillColor=#f0a30a;strokeColor=#BD7000;fontColor=#000000;" parent="1" vertex="1">
          <mxGeometry x="98.5" y="1520" width="137" height="40" as="geometry" />
        </mxCell>
        <mxCell id="q8BLech53V7XYQDHPa9J-63" value="&lt;div&gt;Gestion des&amp;nbsp;&lt;/div&gt;&lt;div&gt;incidents&lt;br&gt;&lt;/div&gt;" style="shape=parallelogram;perimeter=parallelogramPerimeter;whiteSpace=wrap;html=1;fixedSize=1;size=23.5;fillColor=#f0a30a;strokeColor=#BD7000;fontColor=#000000;" parent="1" vertex="1">
          <mxGeometry x="98.5" y="1570" width="137" height="40" as="geometry" />
        </mxCell>
        <mxCell id="q8BLech53V7XYQDHPa9J-64" value="&lt;div&gt;Maintenance et&amp;nbsp;&lt;/div&gt;&lt;div&gt;mises à jour&lt;/div&gt;" style="shape=parallelogram;perimeter=parallelogramPerimeter;whiteSpace=wrap;html=1;fixedSize=1;size=23.5;fillColor=#f0a30a;strokeColor=#BD7000;fontColor=#000000;" parent="1" vertex="1">
          <mxGeometry x="96.5" y="1620" width="137" height="40" as="geometry" />
        </mxCell>
        <mxCell id="q8BLech53V7XYQDHPa9J-65" value="Comptabilité&amp;nbsp;&lt;div&gt;générale&lt;/div&gt;" style="shape=parallelogram;perimeter=parallelogramPerimeter;whiteSpace=wrap;html=1;fixedSize=1;size=23.5;fillColor=#f0a30a;strokeColor=#BD7000;fontColor=#000000;" parent="1" vertex="1">
          <mxGeometry x="348.5" y="1520" width="137" height="40" as="geometry" />
        </mxCell>
        <mxCell id="q8BLech53V7XYQDHPa9J-66" value="&lt;div&gt;&lt;span style=&quot;background-color: initial;&quot;&gt;Facturation&lt;/span&gt;&lt;br&gt;&lt;/div&gt;" style="shape=parallelogram;perimeter=parallelogramPerimeter;whiteSpace=wrap;html=1;fixedSize=1;size=23.5;fillColor=#f0a30a;strokeColor=#BD7000;fontColor=#000000;" parent="1" vertex="1">
          <mxGeometry x="348.5" y="1570" width="137" height="40" as="geometry" />
        </mxCell>
        <mxCell id="q8BLech53V7XYQDHPa9J-68" value="Formation des&amp;nbsp;&lt;div&gt;employés&lt;/div&gt;" style="shape=parallelogram;perimeter=parallelogramPerimeter;whiteSpace=wrap;html=1;fixedSize=1;size=23.5;fillColor=#f0a30a;strokeColor=#BD7000;fontColor=#000000;" parent="1" vertex="1">
          <mxGeometry x="602.5" y="1520" width="137" height="40" as="geometry" />
        </mxCell>
        <mxCell id="q8BLech53V7XYQDHPa9J-69" value="Évaluation et&amp;nbsp;&lt;div&gt;certification&lt;/div&gt;" style="shape=parallelogram;perimeter=parallelogramPerimeter;whiteSpace=wrap;html=1;fixedSize=1;size=23.5;fillColor=#f0a30a;strokeColor=#BD7000;fontColor=#000000;" parent="1" vertex="1">
          <mxGeometry x="602.5" y="1570" width="137" height="40" as="geometry" />
        </mxCell>
        <mxCell id="BTkJqWCC1S_C7WFAOdsc-1" value="Saas stellar" style="rounded=1;whiteSpace=wrap;html=1;verticalAlign=top;" vertex="1" parent="1">
          <mxGeometry x="680" y="1950" width="200" height="120" as="geometry" />
        </mxCell>
        <mxCell id="BTkJqWCC1S_C7WFAOdsc-2" value="Instagram" style="rounded=1;whiteSpace=wrap;html=1;verticalAlign=top;fillColor=#ffe6cc;strokeColor=#d79b00;" vertex="1" parent="1">
          <mxGeometry x="30" y="1880" width="183" height="70" as="geometry" />
        </mxCell>
        <mxCell id="BTkJqWCC1S_C7WFAOdsc-4" value="Youtube" style="rounded=1;whiteSpace=wrap;html=1;verticalAlign=top;fillColor=#f8cecc;strokeColor=#b85450;" vertex="1" parent="1">
          <mxGeometry x="30" y="1975" width="183" height="70" as="geometry" />
        </mxCell>
        <mxCell id="BTkJqWCC1S_C7WFAOdsc-5" value="Tiktok" style="rounded=1;whiteSpace=wrap;html=1;verticalAlign=top;fillColor=#e1d5e7;strokeColor=#9673a6;" vertex="1" parent="1">
          <mxGeometry x="30" y="2070" width="183" height="70" as="geometry" />
        </mxCell>
        <mxCell id="BTkJqWCC1S_C7WFAOdsc-7" value="APIs" style="rounded=1;whiteSpace=wrap;html=1;verticalAlign=top;fillColor=#d5e8d4;strokeColor=#82b366;" vertex="1" parent="1">
          <mxGeometry x="338" y="1960" width="183" height="100" as="geometry" />
        </mxCell>
        <mxCell id="BTkJqWCC1S_C7WFAOdsc-8" value="" style="endArrow=classic;html=1;rounded=0;exitX=1;exitY=0.5;exitDx=0;exitDy=0;entryX=0;entryY=0.25;entryDx=0;entryDy=0;" edge="1" parent="1" source="BTkJqWCC1S_C7WFAOdsc-2" target="BTkJqWCC1S_C7WFAOdsc-7">
          <mxGeometry width="50" height="50" relative="1" as="geometry">
            <mxPoint x="380" y="2030" as="sourcePoint" />
            <mxPoint x="430" y="1980" as="targetPoint" />
          </mxGeometry>
        </mxCell>
        <mxCell id="BTkJqWCC1S_C7WFAOdsc-9" value="" style="endArrow=classic;html=1;rounded=0;exitX=1;exitY=0.5;exitDx=0;exitDy=0;entryX=0;entryY=0.5;entryDx=0;entryDy=0;" edge="1" parent="1" source="BTkJqWCC1S_C7WFAOdsc-4" target="BTkJqWCC1S_C7WFAOdsc-7">
          <mxGeometry width="50" height="50" relative="1" as="geometry">
            <mxPoint x="380" y="2030" as="sourcePoint" />
            <mxPoint x="430" y="1980" as="targetPoint" />
          </mxGeometry>
        </mxCell>
        <mxCell id="BTkJqWCC1S_C7WFAOdsc-10" value="" style="endArrow=classic;html=1;rounded=0;exitX=1;exitY=0.5;exitDx=0;exitDy=0;entryX=0;entryY=0.75;entryDx=0;entryDy=0;" edge="1" parent="1" source="BTkJqWCC1S_C7WFAOdsc-5" target="BTkJqWCC1S_C7WFAOdsc-7">
          <mxGeometry width="50" height="50" relative="1" as="geometry">
            <mxPoint x="380" y="2030" as="sourcePoint" />
            <mxPoint x="430" y="1980" as="targetPoint" />
          </mxGeometry>
        </mxCell>
        <mxCell id="BTkJqWCC1S_C7WFAOdsc-11" value="" style="endArrow=classic;html=1;rounded=0;exitX=1;exitY=0.5;exitDx=0;exitDy=0;entryX=0;entryY=0.5;entryDx=0;entryDy=0;" edge="1" parent="1" source="BTkJqWCC1S_C7WFAOdsc-7" target="BTkJqWCC1S_C7WFAOdsc-1">
          <mxGeometry width="50" height="50" relative="1" as="geometry">
            <mxPoint x="400" y="2030" as="sourcePoint" />
            <mxPoint x="450" y="1980" as="targetPoint" />
          </mxGeometry>
        </mxCell>
        <mxCell id="BTkJqWCC1S_C7WFAOdsc-12" value="HTTPS&lt;div&gt;Données d&#39;influenceurs&lt;/div&gt;" style="text;html=1;align=center;verticalAlign=middle;whiteSpace=wrap;rounded=0;" vertex="1" parent="1">
          <mxGeometry x="233.5" y="1900" width="137" height="30" as="geometry" />
        </mxCell>
        <mxCell id="BTkJqWCC1S_C7WFAOdsc-13" value="HTTPS&lt;div&gt;Données d&#39;influenceurs&lt;/div&gt;" style="text;html=1;align=center;verticalAlign=middle;whiteSpace=wrap;rounded=0;" vertex="1" parent="1">
          <mxGeometry x="530" y="1960" width="137" height="30" as="geometry" />
        </mxCell>
        <mxCell id="BTkJqWCC1S_C7WFAOdsc-14" value="" style="endArrow=none;html=1;rounded=0;exitX=0.007;exitY=0.364;exitDx=0;exitDy=0;exitPerimeter=0;entryX=1.004;entryY=0.352;entryDx=0;entryDy=0;entryPerimeter=0;strokeWidth=1;" edge="1" parent="1" source="BTkJqWCC1S_C7WFAOdsc-2" target="BTkJqWCC1S_C7WFAOdsc-2">
          <mxGeometry width="50" height="50" relative="1" as="geometry">
            <mxPoint x="380" y="2010" as="sourcePoint" />
            <mxPoint x="430" y="1960" as="targetPoint" />
          </mxGeometry>
        </mxCell>
        <mxCell id="BTkJqWCC1S_C7WFAOdsc-15" value="" style="endArrow=none;html=1;rounded=0;exitX=0.007;exitY=0.364;exitDx=0;exitDy=0;exitPerimeter=0;entryX=1.004;entryY=0.352;entryDx=0;entryDy=0;entryPerimeter=0;strokeWidth=1;" edge="1" parent="1">
          <mxGeometry width="50" height="50" relative="1" as="geometry">
            <mxPoint x="30" y="2005" as="sourcePoint" />
            <mxPoint x="213" y="2005" as="targetPoint" />
          </mxGeometry>
        </mxCell>
        <mxCell id="BTkJqWCC1S_C7WFAOdsc-16" value="" style="endArrow=none;html=1;rounded=0;exitX=0.007;exitY=0.364;exitDx=0;exitDy=0;exitPerimeter=0;entryX=1.004;entryY=0.352;entryDx=0;entryDy=0;entryPerimeter=0;strokeWidth=1;" edge="1" parent="1">
          <mxGeometry width="50" height="50" relative="1" as="geometry">
            <mxPoint x="30" y="2100" as="sourcePoint" />
            <mxPoint x="213" y="2100" as="targetPoint" />
          </mxGeometry>
        </mxCell>
        <mxCell id="BTkJqWCC1S_C7WFAOdsc-17" value="" style="endArrow=none;html=1;rounded=0;exitX=0.007;exitY=0.364;exitDx=0;exitDy=0;exitPerimeter=0;entryX=1.004;entryY=0.352;entryDx=0;entryDy=0;entryPerimeter=0;strokeWidth=1;" edge="1" parent="1">
          <mxGeometry width="50" height="50" relative="1" as="geometry">
            <mxPoint x="338" y="1990" as="sourcePoint" />
            <mxPoint x="521" y="1990" as="targetPoint" />
          </mxGeometry>
        </mxCell>
        <mxCell id="BTkJqWCC1S_C7WFAOdsc-18" value="" style="endArrow=none;html=1;rounded=0;exitX=0.007;exitY=0.364;exitDx=0;exitDy=0;exitPerimeter=0;entryX=1.001;entryY=0.168;entryDx=0;entryDy=0;entryPerimeter=0;strokeWidth=1;" edge="1" parent="1" target="BTkJqWCC1S_C7WFAOdsc-1">
          <mxGeometry width="50" height="50" relative="1" as="geometry">
            <mxPoint x="680" y="1970" as="sourcePoint" />
            <mxPoint x="863" y="1970" as="targetPoint" />
          </mxGeometry>
        </mxCell>
        <mxCell id="BTkJqWCC1S_C7WFAOdsc-19" value="&amp;nbsp; &amp;nbsp;Réseau social" style="text;html=1;align=left;verticalAlign=middle;whiteSpace=wrap;rounded=0;" vertex="1" parent="1">
          <mxGeometry x="30" y="1910" width="180" height="30" as="geometry" />
        </mxCell>
        <mxCell id="BTkJqWCC1S_C7WFAOdsc-20" value="&amp;nbsp; &amp;nbsp;Réseau social" style="text;html=1;align=left;verticalAlign=middle;whiteSpace=wrap;rounded=0;" vertex="1" parent="1">
          <mxGeometry x="31.5" y="2005" width="180" height="30" as="geometry" />
        </mxCell>
        <mxCell id="BTkJqWCC1S_C7WFAOdsc-21" value="&amp;nbsp; &amp;nbsp;Réseau social" style="text;html=1;align=left;verticalAlign=middle;whiteSpace=wrap;rounded=0;" vertex="1" parent="1">
          <mxGeometry x="30" y="2100" width="180" height="30" as="geometry" />
        </mxCell>
        <mxCell id="BTkJqWCC1S_C7WFAOdsc-22" value="Plusieurs&amp;nbsp; provider qui fournissent les données sur les influenceurs pour chaque réseaux&amp;nbsp;&amp;nbsp;" style="text;html=1;align=center;verticalAlign=middle;whiteSpace=wrap;rounded=0;" vertex="1" parent="1">
          <mxGeometry x="338" y="2010" width="180" height="30" as="geometry" />
        </mxCell>
        <mxCell id="BTkJqWCC1S_C7WFAOdsc-24" value="SDWorkx" style="rounded=1;whiteSpace=wrap;html=1;verticalAlign=top;fillColor=#e3c800;strokeColor=#B09500;fontColor=#000000;" vertex="1" parent="1">
          <mxGeometry x="507" y="2100" width="183" height="120" as="geometry" />
        </mxCell>
        <mxCell id="BTkJqWCC1S_C7WFAOdsc-25" value="" style="endArrow=none;html=1;rounded=0;exitX=0.007;exitY=0.364;exitDx=0;exitDy=0;exitPerimeter=0;entryX=1.004;entryY=0.352;entryDx=0;entryDy=0;entryPerimeter=0;strokeWidth=1;" edge="1" parent="1">
          <mxGeometry width="50" height="50" relative="1" as="geometry">
            <mxPoint x="507" y="2120" as="sourcePoint" />
            <mxPoint x="690" y="2120" as="targetPoint" />
          </mxGeometry>
        </mxCell>
        <mxCell id="BTkJqWCC1S_C7WFAOdsc-26" value="Logiciel de comptabilité, fiche de paie, jour de congé..." style="text;html=1;align=center;verticalAlign=middle;whiteSpace=wrap;rounded=0;" vertex="1" parent="1">
          <mxGeometry x="510" y="2120" width="177" height="100" as="geometry" />
        </mxCell>
        <mxCell id="BTkJqWCC1S_C7WFAOdsc-27" value="&lt;ul&gt;&lt;li&gt;Choix influenceurs&lt;/li&gt;&lt;li style=&quot;&quot;&gt;Statistique sur les influenceur&lt;/li&gt;&lt;li style=&quot;&quot;&gt;Gérer des campagnes&lt;/li&gt;&lt;li style=&quot;&quot;&gt;Statistique sur les campagnes&lt;/li&gt;&lt;/ul&gt;" style="text;html=1;align=left;verticalAlign=middle;whiteSpace=wrap;rounded=0;" vertex="1" parent="1">
          <mxGeometry x="667" y="1970" width="203" height="100" as="geometry" />
        </mxCell>
        <mxCell id="BTkJqWCC1S_C7WFAOdsc-37" style="edgeStyle=orthogonalEdgeStyle;rounded=0;orthogonalLoop=1;jettySize=auto;html=1;entryX=0.5;entryY=0;entryDx=0;entryDy=0;" edge="1" parent="1" source="BTkJqWCC1S_C7WFAOdsc-28" target="BTkJqWCC1S_C7WFAOdsc-32">
          <mxGeometry relative="1" as="geometry" />
        </mxCell>
        <mxCell id="BTkJqWCC1S_C7WFAOdsc-28" value="USER" style="shape=umlActor;verticalLabelPosition=top;verticalAlign=bottom;html=1;outlineConnect=0;labelPosition=center;align=center;" vertex="1" parent="1">
          <mxGeometry x="150" y="2370" width="30" height="61" as="geometry" />
        </mxCell>
        <mxCell id="BTkJqWCC1S_C7WFAOdsc-35" style="edgeStyle=orthogonalEdgeStyle;rounded=0;orthogonalLoop=1;jettySize=auto;html=1;entryX=0.5;entryY=0;entryDx=0;entryDy=0;" edge="1" parent="1" source="BTkJqWCC1S_C7WFAOdsc-29" target="BTkJqWCC1S_C7WFAOdsc-34">
          <mxGeometry relative="1" as="geometry" />
        </mxCell>
        <mxCell id="BTkJqWCC1S_C7WFAOdsc-29" value="Manageur" style="shape=umlActor;verticalLabelPosition=top;verticalAlign=bottom;html=1;outlineConnect=0;labelPosition=center;align=center;" vertex="1" parent="1">
          <mxGeometry x="612" y="2380" width="30" height="60" as="geometry" />
        </mxCell>
        <mxCell id="BTkJqWCC1S_C7WFAOdsc-30" value="AWS&lt;div&gt;Saas&lt;/div&gt;" style="ellipse;shape=cloud;whiteSpace=wrap;html=1;" vertex="1" parent="1">
          <mxGeometry x="287" y="2500" width="220" height="130" as="geometry" />
        </mxCell>
        <mxCell id="BTkJqWCC1S_C7WFAOdsc-32" value="OKTA" style="ellipse;whiteSpace=wrap;html=1;aspect=fixed;" vertex="1" parent="1">
          <mxGeometry x="125" y="2520" width="80" height="80" as="geometry" />
        </mxCell>
        <mxCell id="BTkJqWCC1S_C7WFAOdsc-34" value="OKTA" style="ellipse;whiteSpace=wrap;html=1;aspect=fixed;" vertex="1" parent="1">
          <mxGeometry x="587" y="2520" width="80" height="80" as="geometry" />
        </mxCell>
        <mxCell id="BTkJqWCC1S_C7WFAOdsc-36" style="edgeStyle=orthogonalEdgeStyle;rounded=0;orthogonalLoop=1;jettySize=auto;html=1;exitX=0;exitY=0.5;exitDx=0;exitDy=0;entryX=0.932;entryY=0.464;entryDx=0;entryDy=0;entryPerimeter=0;" edge="1" parent="1" source="BTkJqWCC1S_C7WFAOdsc-34" target="BTkJqWCC1S_C7WFAOdsc-30">
          <mxGeometry relative="1" as="geometry" />
        </mxCell>
        <mxCell id="BTkJqWCC1S_C7WFAOdsc-38" style="edgeStyle=orthogonalEdgeStyle;rounded=0;orthogonalLoop=1;jettySize=auto;html=1;entryX=0.047;entryY=0.459;entryDx=0;entryDy=0;entryPerimeter=0;" edge="1" parent="1" source="BTkJqWCC1S_C7WFAOdsc-32" target="BTkJqWCC1S_C7WFAOdsc-30">
          <mxGeometry relative="1" as="geometry" />
        </mxCell>
        <mxCell id="BTkJqWCC1S_C7WFAOdsc-39" value="" style="shape=datastore;whiteSpace=wrap;html=1;" vertex="1" parent="1">
          <mxGeometry x="367" y="2720" width="60" height="60" as="geometry" />
        </mxCell>
        <mxCell id="BTkJqWCC1S_C7WFAOdsc-40" value="" style="endArrow=classic;html=1;rounded=0;exitX=0.511;exitY=0.954;exitDx=0;exitDy=0;exitPerimeter=0;entryX=0.5;entryY=0;entryDx=0;entryDy=0;" edge="1" parent="1" source="BTkJqWCC1S_C7WFAOdsc-30" target="BTkJqWCC1S_C7WFAOdsc-39">
          <mxGeometry width="50" height="50" relative="1" as="geometry">
            <mxPoint x="220" y="2620" as="sourcePoint" />
            <mxPoint x="270" y="2570" as="targetPoint" />
          </mxGeometry>
        </mxCell>
      </root>
    </mxGraphModel>
  </diagram>
</mxfile>
